<?xml version="1.0" encoding="UTF-8"?>
<svg width="512" height="512" viewBox="0 0 512 512" xmlns="http://www.w3.org/2000/svg">
  <!-- Background gradient -->
  <defs>
    <linearGradient id="bgGradient" x1="0%" y1="0%" x2="100%" y2="100%">
      <stop offset="0%" style="stop-color:#667eea;stop-opacity:1" />
      <stop offset="100%" style="stop-color:#764ba2;stop-opacity:1" />
    </linearGradient>
    <linearGradient id="checkGradient" x1="0%" y1="0%" x2="100%" y2="100%">
      <stop offset="0%" style="stop-color:#4ade80;stop-opacity:1" />
      <stop offset="100%" style="stop-color:#22c55e;stop-opacity:1" />
    </linearGradient>
    <filter id="shadow" x="-50%" y="-50%" width="200%" height="200%">
      <feDropShadow dx="0" dy="4" stdDeviation="8" flood-color="#000000" flood-opacity="0.25"/>
    </filter>
  </defs>
  
  <!-- Background rounded rectangle -->
  <rect width="512" height="512" rx="108" ry="108" fill="url(#bgGradient)"/>
  
  <!-- Main checklist paper -->
  <rect x="96" y="80" width="320" height="400" rx="16" ry="16" fill="#ffffff" filter="url(#shadow)"/>
  
  <!-- Paper lines -->
  <line x1="130" y1="140" x2="382" y2="140" stroke="#e5e7eb" stroke-width="2"/>
  <line x1="130" y1="180" x2="382" y2="180" stroke="#e5e7eb" stroke-width="2"/>
  <line x1="130" y1="220" x2="382" y2="220" stroke="#e5e7eb" stroke-width="2"/>
  <line x1="130" y1="260" x2="382" y2="260" stroke="#e5e7eb" stroke-width="2"/>
  <line x1="130" y1="300" x2="382" y2="300" stroke="#e5e7eb" stroke-width="2"/>
  <line x1="130" y1="340" x2="382" y2="340" stroke="#e5e7eb" stroke-width="2"/>
  <line x1="130" y1="380" x2="382" y2="380" stroke="#e5e7eb" stroke-width="2"/>
  <line x1="130" y1="420" x2="382" y2="420" stroke="#e5e7eb" stroke-width="2"/>
  
  <!-- Checkboxes -->
  <!-- Completed checkbox -->
  <rect x="130" y="125" width="20" height="20" rx="4" ry="4" fill="url(#checkGradient)" stroke="#22c55e" stroke-width="2"/>
  <path d="M135 135 L140 140 L145 130" stroke="#ffffff" stroke-width="3" fill="none" stroke-linecap="round" stroke-linejoin="round"/>
  
  <!-- Empty checkbox -->
  <rect x="130" y="165" width="20" height="20" rx="4" ry="4" fill="#ffffff" stroke="#d1d5db" stroke-width="2"/>
  
  <!-- Empty checkbox -->
  <rect x="130" y="205" width="20" height="20" rx="4" ry="4" fill="#ffffff" stroke="#d1d5db" stroke-width="2"/>
  
  <!-- Task text lines -->
  <rect x="160" y="128" width="120" height="8" rx="4" fill="#10b981"/>
  <rect x="160" y="138" width="80" height="6" rx="3" fill="#6ee7b7"/>
  
  <rect x="160" y="168" width="140" height="8" rx="4" fill="#6b7280"/>
  <rect x="160" y="178" width="100" height="6" rx="3" fill="#9ca3af"/>
  
  <rect x="160" y="208" width="160" height="8" rx="4" fill="#6b7280"/>
  <rect x="160" y="218" width="120" height="6" rx="3" fill="#9ca3af"/>
  
  <!-- Header decoration -->
  <rect x="115" y="100" width="282" height="4" rx="2" fill="url(#bgGradient)"/>
  
  <!-- Notification bell icon (top right) -->
  <g transform="translate(360, 100)">
    <path d="M12 2C13.1 2 14 2.9 14 4V5.17C16.83 6.23 19 9.02 19 12.5V18L21 20V21H3V20L5 18V12.5C5 9.02 7.17 6.23 10 5.17V4C10 2.9 10.9 2 12 2M12 23C13.11 23 14 22.11 14 21H10C10 22.11 10.89 23 12 23Z" 
          fill="#fbbf24" stroke="#f59e0b" stroke-width="0.5" scale="1.2"/>
  </g>
</svg>
